<mxfile host="app.diagrams.net" modified="2024-05-04T19:39:58.597Z" agent="Mozilla/5.0 (Windows NT 10.0; Win64; x64) AppleWebKit/537.36 (KHTML, like Gecko) Chrome/124.0.0.0 Safari/537.36" etag="dI6fk5UUKKRBwBkwRlAm" version="24.3.1" type="device">
  <diagram id="YrfzH3xwVrYN7FTBeiER" name="Page-1">
    <mxGraphModel dx="882" dy="578" grid="1" gridSize="10" guides="1" tooltips="1" connect="1" arrows="1" fold="1" page="1" pageScale="1" pageWidth="850" pageHeight="1100" math="0" shadow="0">
      <root>
        <mxCell id="0" />
        <mxCell id="1" parent="0" />
        <mxCell id="W2C-pqZ3fu2_AHB15Ob1-8" style="edgeStyle=orthogonalEdgeStyle;rounded=0;orthogonalLoop=1;jettySize=auto;html=1;exitX=0;exitY=0.5;exitDx=0;exitDy=0;" edge="1" parent="1" source="W2C-pqZ3fu2_AHB15Ob1-1" target="W2C-pqZ3fu2_AHB15Ob1-6">
          <mxGeometry relative="1" as="geometry" />
        </mxCell>
        <mxCell id="W2C-pqZ3fu2_AHB15Ob1-9" style="edgeStyle=orthogonalEdgeStyle;rounded=0;orthogonalLoop=1;jettySize=auto;html=1;exitX=1;exitY=0.5;exitDx=0;exitDy=0;" edge="1" parent="1" source="W2C-pqZ3fu2_AHB15Ob1-1" target="W2C-pqZ3fu2_AHB15Ob1-7">
          <mxGeometry relative="1" as="geometry" />
        </mxCell>
        <mxCell id="W2C-pqZ3fu2_AHB15Ob1-1" value="Webmail" style="rounded=1;whiteSpace=wrap;html=1;" vertex="1" parent="1">
          <mxGeometry x="360" y="80" width="120" height="60" as="geometry" />
        </mxCell>
        <mxCell id="W2C-pqZ3fu2_AHB15Ob1-2" value="Metadata DB" style="rounded=1;whiteSpace=wrap;html=1;" vertex="1" parent="1">
          <mxGeometry x="120" y="360" width="80" height="40" as="geometry" />
        </mxCell>
        <mxCell id="W2C-pqZ3fu2_AHB15Ob1-3" value="Attachment store" style="rounded=1;whiteSpace=wrap;html=1;" vertex="1" parent="1">
          <mxGeometry x="280" y="360" width="80" height="40" as="geometry" />
        </mxCell>
        <mxCell id="W2C-pqZ3fu2_AHB15Ob1-4" value="Distributed cache" style="rounded=1;whiteSpace=wrap;html=1;" vertex="1" parent="1">
          <mxGeometry x="480" y="360" width="80" height="40" as="geometry" />
        </mxCell>
        <mxCell id="W2C-pqZ3fu2_AHB15Ob1-5" value="Search store" style="rounded=1;whiteSpace=wrap;html=1;" vertex="1" parent="1">
          <mxGeometry x="640" y="360" width="80" height="40" as="geometry" />
        </mxCell>
        <mxCell id="W2C-pqZ3fu2_AHB15Ob1-13" style="edgeStyle=orthogonalEdgeStyle;rounded=0;orthogonalLoop=1;jettySize=auto;html=1;exitX=0.5;exitY=1;exitDx=0;exitDy=0;entryX=0.25;entryY=0;entryDx=0;entryDy=0;" edge="1" parent="1" source="W2C-pqZ3fu2_AHB15Ob1-6" target="W2C-pqZ3fu2_AHB15Ob1-12">
          <mxGeometry relative="1" as="geometry" />
        </mxCell>
        <mxCell id="W2C-pqZ3fu2_AHB15Ob1-6" value="Web servers" style="rounded=1;whiteSpace=wrap;html=1;" vertex="1" parent="1">
          <mxGeometry x="240" y="200" width="120" height="60" as="geometry" />
        </mxCell>
        <mxCell id="W2C-pqZ3fu2_AHB15Ob1-14" style="edgeStyle=orthogonalEdgeStyle;rounded=0;orthogonalLoop=1;jettySize=auto;html=1;exitX=0.5;exitY=1;exitDx=0;exitDy=0;entryX=0.75;entryY=0;entryDx=0;entryDy=0;" edge="1" parent="1" source="W2C-pqZ3fu2_AHB15Ob1-7" target="W2C-pqZ3fu2_AHB15Ob1-12">
          <mxGeometry relative="1" as="geometry" />
        </mxCell>
        <mxCell id="W2C-pqZ3fu2_AHB15Ob1-7" value="Real-time servers" style="rounded=1;whiteSpace=wrap;html=1;" vertex="1" parent="1">
          <mxGeometry x="480" y="200" width="120" height="60" as="geometry" />
        </mxCell>
        <mxCell id="W2C-pqZ3fu2_AHB15Ob1-12" value="" style="swimlane;startSize=0;" vertex="1" parent="1">
          <mxGeometry x="80" y="320" width="680" height="120" as="geometry" />
        </mxCell>
        <mxCell id="W2C-pqZ3fu2_AHB15Ob1-15" value="HTTPS" style="text;html=1;align=center;verticalAlign=middle;whiteSpace=wrap;rounded=0;" vertex="1" parent="1">
          <mxGeometry x="320" y="160" width="80" height="30" as="geometry" />
        </mxCell>
        <mxCell id="W2C-pqZ3fu2_AHB15Ob1-16" value="WebSocket" style="text;html=1;align=center;verticalAlign=middle;whiteSpace=wrap;rounded=0;" vertex="1" parent="1">
          <mxGeometry x="560" y="160" width="80" height="30" as="geometry" />
        </mxCell>
      </root>
    </mxGraphModel>
  </diagram>
</mxfile>
